<svg width="18" height="20" viewBox="0 0 18 20" fill="none" xmlns="http://www.w3.org/2000/svg">
<path d="M11 9.5C11.663 9.5 12.2989 9.23661 12.7678 8.76777C13.2366 8.29893 13.5 7.66304 13.5 7C13.5 6.33696 13.2366 5.70107 12.7678 5.23223C12.2989 4.76339 11.663 4.5 11 4.5C10.337 4.5 9.70107 4.76339 9.23223 5.23223C8.76339 5.70107 8.5 6.33696 8.5 7C8.5 7.66304 8.76339 8.29893 9.23223 8.76777C9.70107 9.23661 10.337 9.5 11 9.5ZM11 0C12.8565 0 14.637 0.737498 15.9497 2.05025C17.2625 3.36301 18 5.14348 18 7C18 12.25 11 20 11 20C11 20 4 12.25 4 7C4 5.14348 4.7375 3.36301 6.05025 2.05025C7.36301 0.737498 9.14348 0 11 0ZM2 7C1.984 11.477 7.078 17.664 8.006 18.814L7 20C7 20 0 12.25 0 7C0.000447805 5.49201 0.487584 4.02443 1.38897 2.8155C2.29036 1.60656 3.55786 0.720823 5.003 0.29C4.05731 1.13322 3.30082 2.16706 2.78324 3.32355C2.26567 4.48004 1.99874 5.73298 2 7Z" fill="#FEFEFE"/>
</svg>
