<svg width="19" height="19" viewBox="0 0 19 19" fill="none" xmlns="http://www.w3.org/2000/svg">
<path d="M9.70945 3.34458e-05C6.40935 -0.00880375 3.50525 1.73433 1.84546 4.36782C1.77189 4.48491 1.85412 4.63956 1.99045 4.63956H3.51174C3.61562 4.63956 3.713 4.59316 3.77792 4.51142C3.9294 4.32363 4.0917 4.14247 4.26265 3.97014C4.96812 3.25212 5.78828 2.68654 6.70149 2.29329C7.64499 1.88677 8.64909 1.6791 9.68565 1.6791C10.7222 1.6791 11.7263 1.88456 12.6698 2.29329C13.583 2.68654 14.4032 3.25212 15.1086 3.97014C15.8141 4.68816 16.3659 5.52549 16.7533 6.4556C17.1536 7.41886 17.3549 8.44176 17.3549 9.50002C17.3549 10.5583 17.1515 11.5812 16.7533 12.5444C16.3681 13.4745 15.8141 14.3119 15.1086 15.0299C14.4032 15.7479 13.583 16.3135 12.6698 16.7067C11.7256 17.1139 10.7107 17.3228 9.68565 17.3209C8.64909 17.3209 7.64499 17.1133 6.70149 16.7067C5.79007 16.3139 4.96186 15.7444 4.26265 15.0299C4.0917 14.8554 3.93156 14.6742 3.77792 14.4886C3.713 14.4069 3.61345 14.3605 3.51174 14.3605H1.99045C1.85412 14.3605 1.76972 14.5151 1.84546 14.6322C3.50309 17.2591 6.3942 19 9.68565 19C14.797 19 18.9476 14.8001 18.9995 9.59723C19.0515 4.31038 14.8944 0.0132892 9.70945 3.34458e-05ZM6.96809 11.9744V10.2954H0.17312C0.0779041 10.2954 0 10.2158 0 10.1186V8.88141C0 8.7842 0.0779041 8.70467 0.17312 8.70467H6.96809V7.0256C6.96809 6.87758 7.13688 6.79363 7.24941 6.88642L10.3201 9.36083C10.3408 9.37736 10.3576 9.39849 10.3691 9.4226C10.3806 9.44672 10.3866 9.47319 10.3866 9.50002C10.3866 9.52684 10.3806 9.55331 10.3691 9.57743C10.3576 9.60154 10.3408 9.62267 10.3201 9.6392L7.24941 12.1136C7.13688 12.2042 6.96809 12.1225 6.96809 11.9744Z" fill="#444444"/>
</svg>
