<svg width="48" height="45" viewBox="0 0 48 45" fill="none" xmlns="http://www.w3.org/2000/svg">
<g>
<path d="M5.70999 21.27C2.13999 18.95 -0.320007 15.24 1.75999 10.73C3.84999 6.21 12.48 5.42 16.41 1C19.98 5.07 20.17 11.83 16.98 17.15C14.83 20.73 10.91 21.22 8.86999 21.21" stroke="#88BA61" stroke-width="2" stroke-miterlimit="10"/>
<path d="M21.36 3.99999C22.99 3.57999 24.69 3.35999 26.45 3.35999C37.64 3.35999 46.72 12.43 46.72 23.63C46.72 34.82 37.65 43.9 26.45 43.9C15.25 43.9 6.19 34.82 6.19 23.62C6.19 17.32 9.06 11.7 13.57 7.97999" stroke="#88BA61" stroke-width="2" stroke-miterlimit="10"/>
<path d="M46.72 24.89H43.72L41.72 21.89H39.72L38.72 22.89H35.72L30.72 17.89H23.72V15.89C23.72 13.68 25.51 11.89 27.72 11.89H29.72L31.72 9.89002H36.72L38.72 7.89001" stroke="#88BA61" stroke-width="2" stroke-miterlimit="10"/>
<path d="M31.72 36.89H28.72V29.89L26.72 27.89H22.72V24.89L25.72 21.89H30.72L35.72 26.89V32.89L31.72 36.89Z" stroke="#88BA61" stroke-width="2" stroke-miterlimit="10"/>
</g>
</svg>
