<svg width="48" height="47" viewBox="0 0 48 47" fill="none" xmlns="http://www.w3.org/2000/svg">
<g>
<path d="M37.66 42C37.66 41.46 37.5 40.67 38.37 39.81C39.24 38.94 45.4 31.69 46.27 30.82C47.06 30.03 47.04 21.38 46.98 20.21C46.92 19.09 46.73 13.2 45.86 11.02C44.9 10.88 43.33 11.53 42.32 13.14C41.36 14.68 41.52 16.31 42.32 18.8L40.76 23.72" stroke="#88BA61" stroke-width="2" stroke-miterlimit="10"/>
<path d="M36.95 32.74C36.95 32.74 40.9 28.7 41.61 27.99C44.44 25.16 40.9 21.63 38.07 24.45C37.36 25.16 37.3 25.31 35.33 27.28C34.74 27.87 33.93 27.56 32.99 28.49C32.58 28.9 30.36 31.07 29.4 32.03C28.46 32.98 28 34.95 28 36.27C28 38.39 28 42 28 42" stroke="#88BA61" stroke-width="2" stroke-miterlimit="10"/>
<path d="M40 47V42H26V47" stroke="#88BA61" stroke-width="2" stroke-miterlimit="10"/>
<path d="M29 45H31" stroke="#88BA61" stroke-width="2" stroke-miterlimit="10"/>
<path d="M10.34 42C10.34 41.46 10.5 40.67 9.63001 39.81C8.76001 38.94 2.60001 31.69 1.73001 30.82C0.94001 30.03 0.96001 21.38 1.02001 20.21C1.08001 19.09 1.27001 13.2 2.14001 11.02C3.10001 10.88 4.67001 11.53 5.68001 13.14C6.64001 14.68 6.48001 16.31 5.68001 18.8L7.24001 23.72" stroke="#88BA61" stroke-width="2" stroke-miterlimit="10"/>
<path d="M11.05 32.74C11.05 32.74 7.10001 28.7 6.39001 27.99C3.56001 25.16 7.10001 21.63 9.93001 24.45C10.64 25.16 10.7 25.31 12.67 27.28C13.26 27.87 14.07 27.56 15.01 28.49C15.42 28.9 17.64 31.07 18.6 32.03C19.56 32.99 19.97 34.95 20.01 36.27C20.01 38.39 20.01 42 20.01 42" stroke="#88BA61" stroke-width="2" stroke-miterlimit="10"/>
<path d="M8 47V42H22V47" stroke="#88BA61" stroke-width="2" stroke-miterlimit="10"/>
<path d="M19 45H17" stroke="#88BA61" stroke-width="2" stroke-miterlimit="10"/>
<path d="M22.16 22.92C18.21 21.44 16.26 16.49 16.9 13.86C18.59 6.8 25.3 6.13 28.16 1C32.49 4.17 34.13 10.67 32.19 16.51C30.88 20.44 27.19 21.75 25.21 22.18" stroke="#88BA61" stroke-width="2" stroke-miterlimit="10"/>
<path d="M23.15 28.97C20.17 20.36 24.59 13.83 27.1 8.20999" stroke="#88BA61" stroke-width="2" stroke-miterlimit="10"/>
</g>
</svg>
