<svg width="44" height="46" viewBox="0 0 44 46" fill="none" xmlns="http://www.w3.org/2000/svg">
<g>
<path d="M7.11 16.31C6.21 13.91 7.42 11.22 9.82 10.3C12.22 9.39 14.89 10.6 15.79 13" stroke="#88BA61" stroke-width="2" stroke-miterlimit="10"/>
<path d="M26.93 38.95C27.85 40.9 27.02 43.26 25.07 44.23C23.12 45.2 20.79 44.41 19.87 42.46" stroke="#88BA61" stroke-width="2" stroke-miterlimit="10"/>
<path d="M5.67 36.57C1.85 31.15 3.73 23 6.89 20.15C15.35 12.51 24.64 17.59 32.9 13.48C35.7 21.43 32.06 31.32 24.36 37.17C19.18 41.11 13.22 39.53 10.28 38.33" stroke="#88BA61" stroke-width="2" stroke-miterlimit="10"/>
<path d="M0.950001 44.62C5.31 31.77 17.56 26.53 25.13 21.88" stroke="#88BA61" stroke-width="2" stroke-miterlimit="10"/>
<path d="M26.95 4.52C26.95 6.46 25.38 8.04 23.45 8.04C21.52 8.04 19.95 6.46 19.95 4.52C19.95 2.58 21.51 1 23.45 1C25.39 1 26.95 2.58 26.95 4.52Z" stroke="#88BA61" stroke-width="2" stroke-miterlimit="10"/>
<path d="M42.95 37.5C42.95 39.99 40.94 42 38.45 42C35.96 42 33.95 39.99 33.95 37.5C33.95 35.01 35.96 33 38.45 33C40.93 33 42.95 35.01 42.95 37.5Z" stroke="#88BA61" stroke-width="2" stroke-miterlimit="10"/>
</g>
</svg>
